<?xml version="1.0" encoding="UTF-8" standalone="no"?>
<svg data-v-521bd47b="" version="1.0" xmlns="http://www.w3.org/2000/svg" width="200px" height="200px" viewBox="0 0 400 250"
     preserveAspectRatio="xMid" color-interpolation-filters="sRGB" class="el-tooltip" style="margin: auto;">
    <g data-v-521bd47b="" fill="#fff" class="icon-svg-group iconsvg" transform="translate(0,95.55148506164551)">
        <g class="iconsvg-imagesvg" transform="translate(0,0)">
            <rect fill="#fff" fill-opacity="0" stroke-width="2" x="0" y="0" width="51" height="60.000000000000185"></rect>
            <svg filter="url(#colors8613453395)" x="0" y="0" width="51px" height="60.000000000000185px" class="imagesvg-svg">
                <svg xmlns="http://www.w3.org/2000/svg" viewBox="0 0 95 100">
                    <path d="M81.3 71L41.7 93.9 2 71V25.2L41.7 2.3l39.6 22.9V71zM61.6 47.9L40.7 59.8m1-46.8l39.6 23.6M41.7 13v12.3l29.7 17.1v22.9l9.9 5.7M66.6 27.9L41.7 13 2 36.6l.1-11.3m39.6 0L12.5 42.9v22.4L2 71m10.5-5.7l29.2 17.1 29.7-17.1M41.7 36.6l29.7 17.2m-58.9.3L41.7 71l29.7-17.2m-20.7 12L12.5 42.9m9 5.4l30-17.3M31.6 54.2l20.2-11.7" fill="none" stroke="#333" stroke-width="4" stroke-miterlimit="10">

                    </path>
                </svg>
            </svg>
            <defs>
                <filter id="colors8613453395">
                    <feColorMatrix type="matrix" values="0 0 0 0 0.99609375  0 0 0 0 0.99609375  0 0 0 0 0.99609375  0 0 0 1 0"></feColorMatrix>
                </filter>
            </defs>
        </g>
        <g transform="translate(58,12.608514785766602)">
            <g class="iconsvg-namesvg">
                <g>
                    <path transform="translate(-0.92,33)" d="M23.28-28.32L25.32-21.32L27.64-21.32L27.48-29.88L1.08-29.88L0.92-21.32L3.28-21.32L5.28-28.32L10.80-28.32C10.88-24.20 10.88-20 10.88-15.80L10.88-14.04C10.88-9.88 10.88-5.76 10.80-1.76L6.76-1.36L6.76 0L21.80 0L21.80-1.36L17.72-1.76C17.64-5.84 17.64-10 17.64-14.08L17.64-15.80C17.64-20.04 17.64-24.20 17.72-28.32ZM39.88-3.88C38.40-2.56 37.48-2.04 36.40-2.04C34.52-2.04 33.40-3.16 33.40-5.56C33.40-8.48 34.88-10.36 37.68-11.52C38.16-11.72 38.96-11.96 39.88-12.20ZM31.32-20.16L31.96-20.40ZM49.16-3C48.40-1.80 47.96-1.48 47.36-1.48C46.60-1.48 46.12-2 46.12-3.52L46.12-14.28C46.12-20.08 43.84-22.52 38.16-22.52C31.96-22.52 28.48-20.12 28.16-16.36C28.48-15.04 29.48-14.32 30.92-14.32C32.44-14.32 33.80-15.40 33.92-18.12L34.20-20.96C34.80-21.08 35.32-21.12 35.88-21.12C38.92-21.12 39.88-19.88 39.88-15.72L39.88-13.28C38.48-12.92 37.08-12.56 35.96-12.24C29.52-10.36 27.44-8.40 27.44-4.76C27.44-1.40 29.84 0.68 33.28 0.68C36.48 0.68 38-0.56 40.04-2.80C40.64-0.64 42.12 0.68 44.76 0.68C47.32 0.68 48.84-0.24 49.84-2.44ZM57.12-26.48C59.04-26.48 60.60-27.84 60.60-29.72C60.60-31.64 59.04-33 57.12-33C55.24-33 53.68-31.64 53.68-29.72C53.68-27.84 55.24-26.48 57.12-26.48ZM60.56-1.48C60.52-3.80 60.48-7.28 60.48-9.52L60.48-15.68L60.64-22.08L60.08-22.48L50.92-20.08L50.92-19.12L53.92-18.80C54-16.76 54.04-15.28 54.04-12.72L54.04-9.52C54.04-7.28 54-3.84 53.96-1.48L51.32-1.24L51.32 0L63 0L63-1.24ZM74.36-22.08L73.80-22.48L65.12-19.96L65.12-19L68.12-18.68C68.20-16.76 68.24-15.44 68.24-12.84L68.24-9.52C68.24-7.28 68.20-3.84 68.16-1.52L65.44-1.24L65.44 0L78.44 0L78.44-1.24L74.76-1.60C74.72-3.96 74.68-7.32 74.68-9.52L74.68-12.84C75.44-15.80 76.40-17.52 78-19L78.36-18.52C79.44-17.08 80.40-16.12 81.92-16.12C83.92-16.12 84.72-17.60 84.88-19.36C84.48-21.76 82.88-22.52 81-22.52C78.60-22.52 75.88-20.44 74.68-16.36ZM92.36-12.44C92.52-18.64 94.32-21.12 96.52-21.12C98.64-21.12 100.16-19.28 100.16-15.80C100.16-13.32 99.68-12.40 97.80-12.40ZM105.16-5.20C103.84-3.36 102.12-2.16 99.32-2.16C95.56-2.16 92.56-4.72 92.36-10.96L105.96-10.96C106.16-11.72 106.20-12.40 106.20-13.40C106.20-18.48 102.96-22.52 96.96-22.52C91.24-22.52 85.52-18.52 85.52-11C85.52-3.52 90.40 0.68 97.00 0.68C101.08 0.68 104.28-1.28 105.92-4.72ZM131.56-1.36L131.56-15.36L131.72-21.88L131.20-22.28L122.52-20.88L122.52-20L125.20-19.48L125.04-4.68C123.88-3.52 122.44-2.76 120.92-2.76C119.00-2.76 117.76-3.76 117.76-6.96L117.76-15.36L118.00-21.88L117.48-22.28L108.60-21.08L108.60-20L111.40-19.44L111.24-7.56C111.16-1.48 113.68 0.68 117.68 0.68C120.60 0.68 123.24-1.12 125.08-3.44L125.28 0.56L134.08 0.04L134.08-1.16ZM172.76-1.48C172.72-3.76 172.68-7.16 172.68-9.52L172.68-14.56C172.68-20 170.64-22.52 166.16-22.52C163.56-22.52 161.40-21.52 158.76-18.36C157.92-21.16 155.88-22.52 152.88-22.52C150.16-22.52 148-21.28 145.68-18.52L145.40-22.08L144.84-22.48L136.16-19.96L136.16-19.04L139.16-18.72C139.24-16.76 139.28-15.48 139.28-12.84L139.28-9.52C139.28-7.28 139.24-3.84 139.20-1.48L136.52-1.24L136.52 0L148.08 0L148.08-1.24L145.80-1.44C145.76-3.80 145.72-7.28 145.72-9.52L145.72-17.16C147.16-18.56 148.68-19.48 150.12-19.48C152.04-19.48 152.88-18.20 152.88-14.92L152.88-9.52C152.88-7.20 152.84-3.80 152.80-1.48L150.24-1.24L150.24 0L161.56 0L161.56-1.24L159.32-1.44C159.24-3.76 159.20-7.16 159.20-9.52L159.20-14.80C159.20-15.64 159.16-16.40 159.04-17.12C160.56-18.64 162.04-19.48 163.52-19.48C165.44-19.48 166.32-18.44 166.32-14.92L166.32-9.52C166.32-7.20 166.28-3.80 166.24-1.48L163.84-1.24L163.84 0L175.16 0L175.16-1.24Z">

                    </path>
                </g>
                <!---->
            </g>
            <!---->
        </g>
    </g>
</svg>